<svg width="20" height="17" viewBox="0 0 20 17" fill="none" xmlns="http://www.w3.org/2000/svg">
<path fill-rule="evenodd" clip-rule="evenodd" d="M0.601393 8.31661C0.601394 8.00167 0.726504 7.69962 0.949204 7.47692C1.1719 7.25422 1.47395 7.12911 1.78889 7.12911L15.5473 7.12912L10.4481 2.03237C10.3377 1.92196 10.2502 1.79088 10.1904 1.64663C10.1306 1.50237 10.0999 1.34776 10.0999 1.19162C10.0999 1.03547 10.1306 0.88086 10.1904 0.736604C10.2502 0.592347 10.3377 0.461274 10.4481 0.350866C10.5586 0.240457 10.6896 0.152875 10.8339 0.0931217C10.9781 0.0333702 11.1328 0.00261614 11.2889 0.00261616C11.445 0.00261617 11.5996 0.0333703 11.7439 0.0931218C11.8882 0.152875 12.0192 0.240457 12.1296 0.350866L19.2546 7.47587C19.3652 7.58617 19.453 7.71722 19.5128 7.86149C19.5727 8.00576 19.6035 8.16042 19.6035 8.31662C19.6035 8.47281 19.5727 8.62748 19.5128 8.77175C19.453 8.91602 19.3652 9.04706 19.2546 9.15737L12.1296 16.2824C11.9067 16.5053 11.6042 16.6306 11.2889 16.6306C10.9736 16.6306 10.6711 16.5053 10.4481 16.2824C10.2252 16.0594 10.0999 15.757 10.0999 15.4416C10.0999 15.1263 10.2252 14.8238 10.4481 14.6009L15.5473 9.50412L1.78889 9.50411C1.47395 9.50411 1.1719 9.379 0.949204 9.1563C0.726504 8.9336 0.601393 8.63156 0.601393 8.31661Z" fill="black"/>
</svg>
