<svg width="104" height="24" viewBox="0 0 104 24" fill="none" xmlns="http://www.w3.org/2000/svg">
<path d="M3.52273 6.36364H0.375L4.30114 18H8.04545L11.9716 6.36364H8.82386L6.22159 14.8864H6.125L3.52273 6.36364ZM14.0071 18L14.7741 15.5568H18.7912L19.5582 18H22.581L18.6548 6.36364H14.9105L10.9844 18H14.0071ZM15.4446 13.4205L16.7344 9.29545H16.8253L18.1207 13.4205H15.4446ZM29.7642 9.85227H32.4574C32.4347 7.67614 30.7017 6.20455 27.9972 6.20455C25.3381 6.20455 23.4233 7.65341 23.4403 9.81818C23.4347 11.5852 24.6733 12.5795 26.6847 13.0398L27.9006 13.3239C29.179 13.6193 29.7528 13.9659 29.7642 14.6193C29.7528 15.3295 29.0881 15.8239 27.9574 15.8239C26.7131 15.8239 25.8949 15.2443 25.8324 14.125H23.1392C23.1733 16.8466 25.0653 18.1477 27.9915 18.1477C30.8892 18.1477 32.6051 16.8352 32.6165 14.625C32.6051 12.767 31.3494 11.6307 29.054 11.125L28.054 10.8977C26.9972 10.6705 26.3267 10.3182 26.3494 9.625C26.3551 8.98864 26.9006 8.52841 27.9915 8.52841C29.0881 8.52841 29.6903 9.02273 29.7642 9.85227ZM33.4574 6.36364L37.7131 14.1136V18H40.5085V14.1136L44.7642 6.36364H41.6222L39.1619 11.233H39.0597L36.5994 6.36364H33.4574ZM47.2727 18L48.0398 15.5568H52.0568L52.8239 18H55.8466L51.9205 6.36364H48.1761L44.25 18H47.2727ZM48.7102 13.4205L50 9.29545H50.0909L51.3864 13.4205H48.7102ZM60.5369 18H65.7585C68.3324 18 69.8097 16.625 69.8097 14.7443C69.8097 13.0625 68.5881 12.0057 67.179 11.9432V11.8295C68.4574 11.5625 69.3551 10.6364 69.3551 9.30682C69.3551 7.55114 68.0028 6.36364 65.3892 6.36364H60.5369V18ZM63.3494 15.733V12.9602H65.1392C66.2131 12.9602 66.8722 13.5284 66.8722 14.4205C66.8722 15.2443 66.304 15.733 65.0881 15.733H63.3494ZM63.3494 11.1477V8.59659H64.9517C65.8892 8.59659 66.4858 9.07955 66.4858 9.85227C66.4858 10.6705 65.8267 11.1477 64.9062 11.1477H63.3494ZM71.1619 18H78.8153V15.7159H73.9744V6.36364H71.1619V18ZM90.8011 12.1818C90.8011 8.33523 88.3693 6.20455 85.2443 6.20455C82.108 6.20455 79.6932 8.33523 79.6932 12.1818C79.6932 16.0114 82.108 18.1591 85.2443 18.1591C88.3693 18.1591 90.8011 16.0284 90.8011 12.1818ZM87.9261 12.1818C87.9261 14.4602 86.9261 15.6932 85.2443 15.6932C83.5682 15.6932 82.5625 14.4602 82.5625 12.1818C82.5625 9.90341 83.5682 8.67045 85.2443 8.67045C86.9261 8.67045 87.9261 9.90341 87.9261 12.1818ZM100.08 10.1648H102.926C102.642 7.84659 100.574 6.20455 97.8807 6.20455C94.7727 6.20455 92.3182 8.39205 92.3182 12.1989C92.3182 15.8807 94.5795 18.1591 97.9148 18.1591C100.909 18.1591 103.051 16.3011 103.051 13.1761V11.6364H98.0341V13.6875H100.341C100.312 14.9148 99.4602 15.6932 97.9375 15.6932C96.1932 15.6932 95.1875 14.4034 95.1875 12.1648C95.1875 9.94318 96.25 8.67045 97.9375 8.67045C99.0625 8.67045 99.8295 9.22159 100.08 10.1648Z" fill="#0A3465"/>
</svg>
